<svg width="468" height="468" viewBox="0 0 468 468" fill="none" xmlns="http://www.w3.org/2000/svg">
<path fill-rule="evenodd" clip-rule="evenodd" d="M233.5 349C296.737 349 348 297.737 348 234.5C348 171.263 296.737 120 233.5 120C170.263 120 119 171.263 119 234.5C119 297.737 170.263 349 233.5 349ZM233.5 351C297.841 351 350 298.841 350 234.5C350 170.159 297.841 118 233.5 118C169.159 118 117 170.159 117 234.5C117 298.841 169.159 351 233.5 351ZM91.7513 220.5C86.7496 229.163 86.7496 239.837 91.7513 248.5L150.835 350.837C155.837 359.5 165.081 364.837 175.084 364.837H293.253C303.256 364.837 312.5 359.5 317.501 350.837L376.585 248.5C381.587 239.837 381.587 229.163 376.585 220.5L317.501 118.163C312.5 109.5 303.256 104.163 293.253 104.163H175.084C165.081 104.163 155.837 109.5 150.835 118.163L91.7513 220.5ZM222.637 277L235.39 277.327C235.608 276.891 235.717 276.346 235.717 275.692C235.717 275.038 235.608 274.457 235.39 273.948C233.646 273.948 231.757 273.839 229.722 273.621C229.213 272.894 228.014 270.569 226.125 266.645C224.308 262.648 223.182 259.96 222.746 258.579L197.676 194.487H195.932L169.009 255.527C165.594 263.23 163.014 268.171 161.27 270.351C159.599 272.531 156.91 274.13 153.204 275.147L152.986 276.019C152.986 276.746 153.204 277.363 153.64 277.872C157.055 277.291 161.052 277 165.63 277L177.184 277.327C177.329 276.891 177.402 276.346 177.402 275.692C177.402 275.038 177.329 274.457 177.184 273.948C173.769 273.948 171.225 273.912 169.554 273.839C169.554 270.06 171.371 263.666 175.004 254.655L177.729 247.679L193.316 247.352C198.766 247.352 203.453 247.461 207.377 247.679L213.808 264.029C214.825 267.081 215.334 269.116 215.334 270.133C215.334 271.15 214.753 272.095 213.59 272.967C212.5 273.766 210.538 274.493 207.704 275.147L207.486 276.019C207.486 276.673 207.704 277.291 208.14 277.872C212.282 277.291 217.114 277 222.637 277ZM193.316 243.864L179.364 243.428L193.316 210.183L205.96 243.537C202.545 243.755 198.33 243.864 193.316 243.864ZM226.778 199.283C226.778 199.646 226.814 200.01 226.887 200.373C230.738 201.39 233.209 202.517 234.299 203.752C236.842 206.659 240.33 213.635 244.763 224.68L268.307 281.251H270.16L292.178 232.964C292.541 232.237 293.377 230.421 294.685 227.514C295.993 224.535 297.446 221.337 299.045 217.922C302.242 211.164 305.04 206.586 307.438 204.188C309.109 202.517 311.362 201.245 314.196 200.373L314.414 199.501C314.414 198.702 314.196 198.084 313.76 197.648C310.127 198.229 306.421 198.52 302.642 198.52C298.863 198.52 294.576 198.411 289.78 198.193C289.635 198.629 289.562 199.174 289.562 199.828C289.562 200.482 289.635 201.063 289.78 201.572C293.995 201.572 296.756 201.717 298.064 202.008C298.064 203.897 297.01 207.93 294.903 214.107C292.796 220.211 290.289 226.497 287.382 232.964L272.776 265.228L259.478 232.964C257.08 227.151 254.973 221.192 253.156 215.088C251.412 208.911 250.54 204.442 250.54 201.681C252.284 201.608 255.263 201.572 259.478 201.572L259.696 199.828C259.696 199.174 259.623 198.629 259.478 198.193C254.9 198.411 249.559 198.52 243.455 198.52C237.351 198.52 231.974 198.229 227.323 197.648C226.96 198.302 226.778 198.847 226.778 199.283Z" fill="#2D2D2D"/>
</svg>
